<svg id="File_management" height="512" viewBox="0 0 64 64" width="512" xmlns="http://www.w3.org/2000/svg" data-name="File management"><path d="m20 7h36v54h-36z" fill="#ffcd25"/><path d="m52 57h-42v-54h30l12 13z" fill="#ffe027"/><path d="m52 16h-12v-13z" fill="#ffe464"/><path d="m61 37v8l-3 10v6h-20v-6l-4.14-3.91-5.67-10.43a3.01 3.01 0 0 1 1.03-4.12 2.986 2.986 0 0 1 4.11 1.03l3.67 6.1v-20.67a3 3 0 0 1 6 0v12a3 3 0 0 1 6 0v1a3 3 0 0 1 6 0v1a3 3 0 0 1 6 0z" fill="#f3b1b2"/><g fill="#1a6fb0"><path d="m14 7h6v2h-6z"/><path d="m22 7h14v2h-14z"/><path d="m14 11h22v2h-22z"/><path d="m14 15h22v2h-22z"/><path d="m14 19h20v2h-20z"/><path d="m14 23h20v2h-20z"/><path d="m14 31h20v2h-20z"/><path d="m14 27h2v2h-2z"/><path d="m18 27h2v2h-2z"/><path d="m22 27h12v2h-12z"/></g></svg>